<svg xmlns="http://www.w3.org/2000/svg" viewBox="0 0 512 512">
  <defs>
    <linearGradient id="rocket-body" x1="0%" y1="0%" x2="100%" y2="100%">
      <stop offset="0%" stop-color="#B08BFF" />
      <stop offset="100%" stop-color="#7C4DFF" />
    </linearGradient>
    <linearGradient id="rocket-flame" x1="0%" y1="0%" x2="0%" y2="100%">
      <stop offset="0%" stop-color="#FFE08C" />
      <stop offset="60%" stop-color="#FF9D5C" />
      <stop offset="100%" stop-color="#FF6A4D" />
    </linearGradient>
  </defs>
  <g fill="none" stroke-linecap="round" stroke-linejoin="round">
    <path fill="url(#rocket-body)" stroke="#9E6BFF" stroke-width="12" d="M256 48c-48 42.4-96 132.3-96 220a144 144 0 0 0 192 0c0-87.7-48-177.6-96-220Z" />
    <circle cx="256" cy="188" r="52" fill="#1C1030" stroke="#C9B5FF" stroke-width="10" />
    <path fill="#1C1030" stroke="#C9B5FF" stroke-width="10" d="M208 320 160 408c24 8 52-2 68-18l28-28 28 28c16 16 44 26 68 18l-48-88" />
    <path fill="url(#rocket-flame)" stroke="#FF8F5A" stroke-width="10" d="M256 362c-26 22-46 74-46 102 24-6 46-18 46-18s22 12 46 18c0-28-20-80-46-102Z" />
    <path stroke="#9E6BFF" stroke-width="18" opacity="0.4" d="M164 220c-52 12-84 36-108 80 52 0 96-16 120-32m224-48c52 12 84 36 108 80-52 0-96-16-120-32" />
  </g>
</svg>
